<?xml version="1.0" encoding="utf-8"?>
<!-- Generator: Adobe Illustrator 22.0.0, SVG Export Plug-In . SVG Version: 6.00 Build 0)  -->
<svg version="1.1" id="Capa_1" xmlns="http://www.w3.org/2000/svg" xmlns:xlink="http://www.w3.org/1999/xlink" x="0px" y="0px"
	 viewBox="0 0 53.3 54.5" enable-background="new 0 0 53.3 54.5" xml:space="preserve">
<g>
	<linearGradient id="SVGID_1_" gradientUnits="userSpaceOnUse" x1="11.6389" y1="4.3156" x2="13.384" y2="25.3329">
		<stop  offset="3.333440e-03" style="stop-color:#FBCB3B"/>
		<stop  offset="0.2484" style="stop-color:#FBC73B"/>
		<stop  offset="0.4899" style="stop-color:#FBBB3B"/>
		<stop  offset="0.7299" style="stop-color:#FBA73B"/>
		<stop  offset="0.9677" style="stop-color:#FB8C3B"/>
		<stop  offset="0.9967" style="stop-color:#FB883B"/>
	</linearGradient>
	<path fill="url(#SVGID_1_)" d="M10,25.8c-0.8-0.9-1.4-2-1.9-3.1c-0.4-1.2-0.7-2.4-0.8-3.6c-0.1-1.3,0-2.5,0.1-3.8
		c0.1-0.6,0.2-1.2,0.3-1.8c0.2-0.6,0.3-1.2,0.5-1.7c0.8-2.3,2-4.3,3.5-5.9C13.2,4.3,15,3,16.8,2.3c0.1,0,0.2,0,0.2,0.1
		c0,0,0,0.1,0,0.1l0,0c-0.4,1-0.6,1.9-0.9,2.8c-0.2,0.9-0.4,1.8-0.5,2.7c-0.2,1.8-0.2,3.4,0,4.9c0,0.2,0.1,0.4,0.1,0.6
		c0,0.2,0.1,0.4,0.1,0.5c0.1,0.4,0.2,0.7,0.3,1c0.2,0.7,0.5,1.3,0.7,1.9c0.2,0.6,0.5,1.2,0.7,1.9c0.2,0.6,0.4,1.3,0.5,2l0.1,0.9
		c0.3,2.8-1.6,5.2-4.3,5.5C12.4,27.5,11,26.9,10,25.8z"/>
	<linearGradient id="SVGID_2_" gradientUnits="userSpaceOnUse" x1="-0.8112" y1="27.993" x2="19.627" y2="39.7727">
		<stop  offset="3.333440e-03" style="stop-color:#FBCB3B"/>
		<stop  offset="0.2909" style="stop-color:#FBBC3B"/>
		<stop  offset="0.8437" style="stop-color:#FB943B"/>
		<stop  offset="0.9967" style="stop-color:#FB883B"/>
	</linearGradient>
	<path fill="url(#SVGID_2_)" d="M17.3,42c-1.1,0.3-2.3,0.3-3.5,0.2c-1.1-0.2-2.3-0.5-3.3-1c-1.1-0.5-2-1.2-2.9-2
		c-0.5-0.4-0.9-0.8-1.3-1.2c-0.4-0.4-0.8-0.9-1.1-1.4c-1.4-1.9-2.4-4-3-6.2c-0.6-2.2-0.7-4.4-0.4-6.5c0-0.1,0.1-0.2,0.2-0.2
		c0,0,0.1,0,0.1,0.1l0,0c0.6,0.8,1.2,1.6,1.8,2.2c0.6,0.7,1.3,1.3,1.9,1.8c1.3,1.1,2.6,1.9,4,2.4c0.2,0.1,0.3,0.1,0.5,0.2
		c0.2,0.1,0.3,0.1,0.5,0.2c0.3,0.1,0.7,0.2,1,0.2c0.7,0.1,1.3,0.2,1.9,0.3c0.6,0.1,1.2,0.2,1.8,0.3c0.6,0.1,1.2,0.3,1.9,0.6l0.8,0.4
		c2.4,1.1,3.4,4.1,2.3,6.8C19.8,40.5,18.6,41.6,17.3,42z"/>
	<linearGradient id="SVGID_3_" gradientUnits="userSpaceOnUse" x1="17.403" y1="51.093" x2="31.7128" y2="40.6858">
		<stop  offset="3.333440e-03" style="stop-color:#FBCB3B"/>
		<stop  offset="0.2909" style="stop-color:#FBBC3B"/>
		<stop  offset="0.8437" style="stop-color:#FB943B"/>
		<stop  offset="0.9967" style="stop-color:#FB883B"/>
	</linearGradient>
	<path fill="url(#SVGID_3_)" d="M33.9,43.2c-0.3,1.2-0.9,2.3-1.6,3.3c-0.7,1-1.6,1.9-2.5,2.6c-0.9,0.7-2,1.3-3.1,1.8
		c-0.5,0.2-1.1,0.4-1.6,0.6c-0.6,0.1-1.1,0.3-1.7,0.4c-2.2,0.4-4.4,0.3-6.5-0.3c-2-0.6-3.9-1.6-5.4-2.9c-0.1-0.1-0.1-0.2,0-0.3
		c0,0,0.1-0.1,0.1-0.1l0,0c1-0.2,1.9-0.4,2.7-0.6c0.9-0.2,1.7-0.5,2.4-0.9c1.5-0.7,2.8-1.5,3.9-2.5c0.1-0.1,0.3-0.3,0.4-0.4
		c0.1-0.1,0.3-0.2,0.4-0.4c0.2-0.3,0.5-0.5,0.7-0.8c0.4-0.5,0.8-1.1,1.2-1.7c0.4-0.5,0.7-1.1,1.1-1.6c0.4-0.5,0.8-1,1.4-1.5l0.7-0.5
		c2.1-1.6,5-1.1,6.6,1.2C34,40.1,34.2,41.8,33.9,43.2z"/>
	<linearGradient id="SVGID_4_" gradientUnits="userSpaceOnUse" x1="39.1816" y1="49.7068" x2="40.8749" y2="29.1762">
		<stop  offset="3.333440e-03" style="stop-color:#FBCB3B"/>
		<stop  offset="0.2909" style="stop-color:#FBBC3B"/>
		<stop  offset="0.8437" style="stop-color:#FB943B"/>
		<stop  offset="0.9967" style="stop-color:#FB883B"/>
	</linearGradient>
	<path fill="url(#SVGID_4_)" d="M43.2,28.3c0.8,0.9,1.4,2,1.9,3.1c0.4,1.2,0.7,2.4,0.8,3.6c0.1,1.3,0,2.5-0.1,3.8
		c-0.1,0.6-0.2,1.2-0.3,1.8c-0.2,0.6-0.3,1.2-0.5,1.7c-0.8,2.3-2,4.3-3.5,5.9c-1.5,1.6-3.2,2.9-5.1,3.6c-0.1,0-0.2,0-0.2-0.1
		c0,0,0-0.1,0-0.1l0,0c0.4-1,0.6-1.9,0.9-2.8c0.2-0.9,0.4-1.8,0.5-2.7c0.2-1.8,0.2-3.4,0-4.9c0-0.2-0.1-0.4-0.1-0.6
		c0-0.2-0.1-0.4-0.1-0.5c-0.1-0.4-0.2-0.7-0.3-1c-0.2-0.7-0.5-1.3-0.7-1.9c-0.2-0.6-0.5-1.2-0.7-1.9c-0.2-0.6-0.4-1.3-0.5-2L35,32.4
		c-0.3-2.8,1.6-5.2,4.3-5.5C40.7,26.7,42.2,27.3,43.2,28.3z"/>
	<linearGradient id="SVGID_5_" gradientUnits="userSpaceOnUse" x1="32.3021" y1="21.264" x2="51.5827" y2="21.264">
		<stop  offset="3.333360e-03" style="stop-color:#FB883B"/>
		<stop  offset="0.1563" style="stop-color:#FB943B"/>
		<stop  offset="0.7091" style="stop-color:#FBBC3B"/>
		<stop  offset="0.9967" style="stop-color:#FBCB3B"/>
	</linearGradient>
	<path fill="url(#SVGID_5_)" d="M35.9,12.2c1.1-0.3,2.3-0.3,3.5-0.2c1.1,0.2,2.3,0.5,3.3,1c1.1,0.5,2,1.2,2.9,2
		c0.5,0.4,0.9,0.8,1.3,1.2c0.4,0.4,0.8,0.9,1.1,1.4c1.4,1.9,2.4,4,3,6.2c0.6,2.2,0.7,4.4,0.4,6.5c0,0.1-0.1,0.2-0.2,0.2
		c0,0-0.1,0-0.1-0.1l0,0c-0.6-0.8-1.2-1.6-1.8-2.2c-0.6-0.7-1.3-1.3-1.9-1.8c-1.3-1.1-2.6-1.9-4-2.4c-0.2-0.1-0.3-0.1-0.5-0.2
		c-0.2-0.1-0.3-0.1-0.5-0.2c-0.3-0.1-0.7-0.2-1-0.2c-0.7-0.1-1.3-0.2-1.9-0.3c-0.6-0.1-1.2-0.2-1.8-0.3c-0.6-0.1-1.2-0.3-1.9-0.6
		L35,21.9c-2.4-1.1-3.4-4.1-2.3-6.8C33.3,13.7,34.5,12.6,35.9,12.2z"/>
	<linearGradient id="SVGID_6_" gradientUnits="userSpaceOnUse" x1="20.4165" y1="13.9362" x2="36.2079" y2="3.2421">
		<stop  offset="3.333360e-03" style="stop-color:#FB883B"/>
		<stop  offset="0.1563" style="stop-color:#FB943B"/>
		<stop  offset="0.7091" style="stop-color:#FBBC3B"/>
		<stop  offset="0.9967" style="stop-color:#FBCB3B"/>
	</linearGradient>
	<path fill="url(#SVGID_6_)" d="M19.3,11c0.3-1.2,0.9-2.3,1.6-3.3c0.7-1,1.6-1.9,2.5-2.6c0.9-0.7,2-1.3,3.1-1.8
		c0.5-0.2,1.1-0.4,1.6-0.6c0.6-0.1,1.1-0.3,1.7-0.4c2.2-0.4,4.4-0.3,6.5,0.3c2,0.6,3.9,1.6,5.4,2.9c0.1,0.1,0.1,0.2,0,0.3
		c0,0-0.1,0.1-0.1,0.1l0,0c-1,0.2-1.9,0.4-2.7,0.6C38,6.8,37.2,7,36.4,7.4c-1.5,0.7-2.8,1.5-3.9,2.5c-0.1,0.1-0.3,0.3-0.4,0.4
		c-0.1,0.1-0.3,0.2-0.4,0.4c-0.2,0.3-0.5,0.5-0.7,0.8c-0.4,0.5-0.8,1.1-1.2,1.7c-0.4,0.5-0.7,1.1-1.1,1.6c-0.4,0.5-0.8,1-1.4,1.5
		l-0.7,0.5c-2.1,1.6-5,1.1-6.6-1.2C19.2,14.1,19,12.4,19.3,11z"/>
</g>
</svg>
